<svg width="85" height="53" viewBox="0 0 85 53" fill="none" xmlns="http://www.w3.org/2000/svg">
<path d="M27.3687 53C22.2733 53 17.7511 51.8994 13.8022 49.6981C9.85325 47.4969 6.73232 44.478 4.43939 40.6415C2.14646 36.7422 1 32.3397 1 27.4341C1 22.4655 2.14646 18.063 4.43939 14.2266C6.73232 10.3901 9.85325 7.40269 13.8022 5.26433C17.7511 3.06308 22.2733 1.96245 27.3687 1.96245C31.4456 1.96245 36 3.29866 40 3.29866C44.5125 3.29867 57.0957 -0.00138339 57.1964 3.78074e-07C62.0383 0.0665533 66.3721 1.16611 70.1978 3.29866C74.2104 5.43702 77.3314 8.42444 79.5606 12.2609C81.8535 16.0345 83 20.437 83 25.4684C83 30.437 81.8535 36.8019 79.5606 40.6384C77.3314 44.4748 74.2104 47.4937 70.1978 49.695C66.3721 51.8275 62.0383 52.9271 57.1964 52.9936C57.0404 52.9958 27.5257 53 27.3687 53ZM27.3687 45.0755C27.526 45.0755 57.0407 45.0706 57.1964 45.0672C60.2551 45.0006 62.9966 44.279 65.4209 42.9025C68.0323 41.456 70.0704 39.412 71.5354 36.7705C73.0003 34.0661 73.7328 28.9904 73.7328 25.4684C73.7328 21.8835 73.0003 18.8018 71.5354 16.2232C70.0704 13.5817 68.0323 11.5376 65.4209 10.0911C62.9966 8.71462 60.2373 7.5907 57.1964 7.92638C52 8.5 45 11.9625 40 11.2234C34 10.3365 33.3117 10.1776 27.3687 9.88696C24.1203 9.88696 21.2223 10.6102 18.6746 12.0568C16.1269 13.5033 14.0888 15.5473 12.5602 18.1888C11.0316 20.7674 10.2672 23.8492 10.2672 27.4341C10.2672 30.9561 11.0316 34.0692 12.5602 36.7736C14.0888 39.4151 16.1269 41.4592 18.6746 42.9057C21.2223 44.3522 24.1203 45.0755 27.3687 45.0755Z" fill="black"/>
</svg>
