<svg width="1220" height="830" viewBox="0 0 1220 830" fill="none" xmlns="http://www.w3.org/2000/svg">
<line x1="756.5" y1="829.01" x2="756.5" y2="0.0101318" stroke="#D8D8D8"/>
<line x1="768.5" y1="829.01" x2="768.5" y2="0.0101318" stroke="#D8D8D8"/>
<line x1="906.5" y1="829.01" x2="906.5" y2="0.0101318" stroke="#D8D8D8"/>
<line x1="918.5" y1="829.01" x2="918.5" y2="0.0101318" stroke="#D8D8D8"/>
<line x1="1057.5" y1="829.01" x2="1057.5" y2="0.0101318" stroke="#D8D8D8"/>
<line x1="1069.5" y1="829.01" x2="1069.5" y2="0.0101318" stroke="#D8D8D8"/>
<line x1="1208.5" y1="829.01" x2="1208.5" y2="0.0101318" stroke="#D8D8D8"/>
<line x1="1219.5" y1="829.01" x2="1219.5" y2="0.0101318" stroke="#D8D8D8"/>
<line x1="604.5" y1="829.01" x2="604.5" y2="0.0101318" stroke="#D8D8D8"/>
<line x1="616.5" y1="829.01" x2="616.5" y2="0.0101318" stroke="#D8D8D8"/>
<line x1="454.5" y1="829.01" x2="454.5" y2="0.0101318" stroke="#D8D8D8"/>
<line x1="466.5" y1="829.01" x2="466.5" y2="0.0101318" stroke="#D8D8D8"/>
<line x1="305" y1="829.013" x2="305" y2="0.00738525" stroke="#D8D8D8"/>
<line y1="-0.5" x2="829.022" y2="-0.5" transform="matrix(0 -1 0.999976 -0.00686856 319.098 829.022)" stroke="#D8D8D8"/>
<line x1="152.5" y1="829.01" x2="152.5" y2="0.0101318" stroke="#D8D8D8"/>
<line x1="164.5" y1="829.01" x2="164.5" y2="0.0101318" stroke="#D8D8D8"/>
<line x1="0.5" y1="829.01" x2="0.5" y2="0.0101318" stroke="#D8D8D8"/>
<line x1="12" y1="829.01" x2="12" y2="0.00981504" stroke="#D8D8D8"/>
</svg>
