<svg width="104" height="64" viewBox="0 0 104 64" fill="none" xmlns="http://www.w3.org/2000/svg">
<g clip-path="url(#clip0_709_58)">
<path d="M30.9412 64C25.3487 64 20.3854 62.7393 16.0512 60.2179C11.717 57.6965 8.29157 54.2386 5.77494 49.8442C3.25831 45.3777 2 40.335 2 34.7159C2 29.0248 3.19178 21.6911 5.70841 17.2967C8.22504 12.9023 11.6504 9.4804 15.9846 7.03106C20.3188 4.50967 25.2822 3.24897 30.8747 3.24897C35.3494 3.24897 40.3481 4.77952 44.7383 4.77952C49.6911 4.77952 58.2981 0.924884 63.6124 1.00112C68.9268 1.07735 73.6834 2.33682 77.8823 4.77952C82.2864 7.22887 85.7118 10.6507 88.1585 15.0452C90.6752 19.3675 92 26.7012 92 32.4644C92 38.1555 90.7417 45.4462 88.2251 49.8406C85.7784 54.235 82.3529 57.6929 77.9488 60.2143C73.7499 62.657 68.9933 63.9165 63.679 63.9927C63.5078 63.9951 31.1136 64 30.9412 64ZM30.9412 53.9267C31.1139 53.9267 63.5081 53.9211 63.679 53.9173C67.0361 53.8409 70.045 53.0144 72.7059 51.4377C75.572 49.7808 76.809 47.4358 78.4169 44.4101C80.0247 41.3124 80.8286 37.4986 80.8286 33.4644C80.8286 29.3581 79.9582 24.5354 78.3503 21.5818C76.7425 18.5561 75.5055 15.213 72.6393 13.5561C69.9785 11.9794 66.9501 10.692 63.6124 11.0765C57.9091 11.7336 50.2262 15.6997 44.7383 14.8531C38.153 13.8372 37.3976 13.6551 30.8747 13.3223C27.3095 13.3223 24.1287 14.1507 21.3325 15.8076C18.5362 17.4645 15.2992 20.8077 13.6215 23.8333C11.9437 26.787 11.1714 29.6097 11.1714 33.7159C11.1714 37.7501 12.0102 40.3161 13.688 43.4138C15.3657 46.4394 18.6028 49.7844 21.399 51.4413C24.1953 53.0983 27.376 53.9267 30.9412 53.9267Z" fill="black"/>
</g>
<defs>
<clipPath id="clip0_709_58">
<rect width="102.977" height="63.116" fill="white" transform="translate(0.478516 0.269775)"/>
</clipPath>
</defs>
</svg>
