<svg width="45" height="45" viewBox="0 0 45 45" fill="none" xmlns="http://www.w3.org/2000/svg">
<g clip-path="url(#clip0_559_34)">
<path d="M17.0612 16.9664C17.0612 14.4492 15.3491 14.4492 15.3491 14.4492H8.31787V19.8457H14.9132C16.0522 19.8457 17.0612 19.4801 17.0612 16.9664ZM15.3491 23.5758H8.31787V30.0375H15.0327C16.0417 30.0094 17.9085 29.6859 17.9085 26.8945C17.8979 23.5547 15.3491 23.5758 15.3491 23.5758ZM33.3737 19.8457C29.6366 19.8457 29.1163 23.5723 29.1163 23.5723H37.0616C37.0616 23.5723 37.1108 19.8457 33.3737 19.8457Z" fill="black"/>
<path d="M39.1112 0.759277H5.88857C4.5282 0.759277 3.22354 1.29968 2.26161 2.26161C1.29968 3.22354 0.759277 4.5282 0.759277 5.88857V39.1077C0.759277 40.4681 1.29968 41.7727 2.26161 42.7347C3.22354 43.6966 4.5282 44.237 5.88857 44.237H39.1077C40.4681 44.237 41.7727 43.6966 42.7347 42.7347C43.6966 41.7727 44.237 40.4681 44.237 39.1077V5.88857C44.237 4.52881 43.6971 3.22468 42.7359 2.26286C41.7747 1.30103 40.471 0.760209 39.1112 0.759277ZM28.0757 11.5733H38.053V14.5546H28.0757V11.5733ZM23.0308 27.1968C23.0308 34.5796 15.3491 34.337 15.3491 34.337H2.76318V10.1495H15.3491C19.1741 10.1495 22.194 12.2589 22.194 16.5901C22.194 20.9214 18.5026 21.1921 18.5026 21.1921C23.3683 21.1921 23.0308 27.1968 23.0308 27.1968ZM41.6952 26.803H29.1796C29.1796 31.296 33.437 31.0218 33.437 31.0218C37.4554 31.0218 37.3042 28.4202 37.3042 28.4202H41.5546C41.5546 35.3249 33.2788 34.8503 33.2788 34.8503C23.3472 34.8503 23.987 25.6042 23.987 25.6042C23.987 25.6042 23.987 16.3124 33.2788 16.3124C43.0698 16.3054 41.6987 26.803 41.6987 26.803H41.6952Z" fill="black"/>
</g>
<defs>
<clipPath id="clip0_559_34">
<rect width="45" height="45" fill="white"/>
</clipPath>
</defs>
</svg>
