<svg width="63" height="63" viewBox="0 0 63 63" fill="none" xmlns="http://www.w3.org/2000/svg">
<path d="M7.875 18.375C7.875 16.9826 8.42812 15.6473 9.41269 14.6627C10.3973 13.6781 11.7326 13.125 13.125 13.125H49.875C51.2674 13.125 52.6027 13.6781 53.5873 14.6627C54.5719 15.6473 55.125 16.9826 55.125 18.375V44.625C55.125 46.0174 54.5719 47.3527 53.5873 48.3373C52.6027 49.3219 51.2674 49.875 49.875 49.875H13.125C11.7326 49.875 10.3973 49.3219 9.41269 48.3373C8.42812 47.3527 7.875 46.0174 7.875 44.625V18.375Z" stroke="black" stroke-width="4" stroke-linecap="round" stroke-linejoin="round"/>
<path d="M7.875 18.375L31.5 34.125L55.125 18.375" stroke="black" stroke-width="4" stroke-linecap="round" stroke-linejoin="round"/>
</svg>
