<svg width="58" height="58" viewBox="0 0 58 58" fill="none" xmlns="http://www.w3.org/2000/svg">
<path d="M29.0002 4.8335C25.8265 4.8335 22.684 5.45859 19.752 6.67307C16.8199 7.88756 14.1558 9.66767 11.9117 11.9117C7.37962 16.4439 4.8335 22.5908 4.8335 29.0002C4.8335 39.6818 11.7693 48.7443 21.3635 51.9585C22.5718 52.1518 22.9585 51.4027 22.9585 50.7502V46.666C16.2643 48.116 14.8385 43.4277 14.8385 43.4277C13.7268 40.6243 12.156 39.8752 12.156 39.8752C9.95683 38.3768 12.3252 38.4252 12.3252 38.4252C14.7418 38.5943 16.0227 40.9143 16.0227 40.9143C18.1252 44.5877 21.6777 43.5002 23.0552 42.9202C23.2727 41.3493 23.901 40.286 24.5777 39.6818C19.2127 39.0777 13.5818 36.9993 13.5818 27.7918C13.5818 25.1093 14.5002 22.9585 16.071 21.2427C15.8293 20.6385 14.9835 18.1252 16.3127 14.8627C16.3127 14.8627 18.3427 14.2102 22.9585 17.3277C24.8677 16.796 26.946 16.5302 29.0002 16.5302C31.0543 16.5302 33.1327 16.796 35.0418 17.3277C39.6577 14.2102 41.6877 14.8627 41.6877 14.8627C43.0168 18.1252 42.171 20.6385 41.9293 21.2427C43.5002 22.9585 44.4185 25.1093 44.4185 27.7918C44.4185 37.0235 38.7635 39.0535 33.3743 39.6577C34.2443 40.4068 35.0418 41.881 35.0418 44.1285V50.7502C35.0418 51.4027 35.4285 52.176 36.661 51.9585C46.2552 48.7202 53.1668 39.6818 53.1668 29.0002C53.1668 25.8266 52.5417 22.684 51.3273 19.752C50.1128 16.8199 48.3327 14.1558 46.0886 11.9117C43.8445 9.66767 41.1804 7.88756 38.2483 6.67307C35.3163 5.45859 32.1738 4.8335 29.0002 4.8335Z" fill="black"/>
</svg>
