<svg width="55" height="55" viewBox="0 0 55 55" fill="none" xmlns="http://www.w3.org/2000/svg">
<path d="M45.5308 6.01562H9.46924C7.5625 6.01562 6.01562 7.5625 6.01562 9.46924V45.5308C6.01562 47.4375 7.5625 48.9844 9.46924 48.9844H45.5308C47.4375 48.9844 48.9844 47.4375 48.9844 45.5308V9.46924C48.9844 7.5625 47.4375 6.01562 45.5308 6.01562ZM45.5308 45.5469C21.479 45.5415 9.45312 45.5361 9.45312 45.5308C9.4585 21.479 9.46387 9.45312 9.46924 9.45312C33.521 9.4585 45.5469 9.46387 45.5469 9.46924C45.5415 33.521 45.5361 45.5469 45.5308 45.5469ZM12.3857 22.1235H18.7612V42.6304H12.3857V22.1235ZM15.5762 19.3198C17.6118 19.3198 19.2715 17.6655 19.2715 15.6245C19.2715 15.1392 19.1759 14.6587 18.9902 14.2104C18.8045 13.762 18.5323 13.3547 18.1892 13.0115C17.846 12.6684 17.4386 12.3962 16.9903 12.2105C16.542 12.0248 16.0614 11.9292 15.5762 11.9292C15.0909 11.9292 14.6104 12.0248 14.162 12.2105C13.7137 12.3962 13.3063 12.6684 12.9632 13.0115C12.6201 13.3547 12.3479 13.762 12.1621 14.2104C11.9764 14.6587 11.8809 15.1392 11.8809 15.6245C11.8755 17.6655 13.5298 19.3198 15.5762 19.3198ZM29.1274 32.4844C29.1274 29.8096 29.6377 27.2207 32.9517 27.2207C36.2173 27.2207 36.2656 30.2769 36.2656 32.6562V42.6304H42.6357V31.3833C42.6357 25.8618 41.4434 21.6133 34.9927 21.6133C31.8936 21.6133 29.8149 23.3159 28.9609 24.9272H28.875V22.1235H22.7573V42.6304H29.1274V32.4844Z" fill="black"/>
</svg>
