<svg width="59" height="59" viewBox="0 0 59 59" fill="none" xmlns="http://www.w3.org/2000/svg">
<path d="M52.6625 41.504L53.963 42.8119L52.6601 41.504H52.6625ZM21.6728 36.2039L22.9708 34.896L21.6703 36.2039H21.6728ZM11.5297 10.1652L10.2317 8.85984L11.5321 10.1677L11.5297 10.1652ZM40.8773 34.1487L42.0007 33.0351L39.3973 30.4194L38.2813 31.533L40.8773 34.1487ZM45.7595 32.568L50.4574 35.1222L52.2151 31.8821L47.5197 29.3304L45.7595 32.568ZM51.3596 40.1962L47.8688 43.6698L50.4672 46.283L53.9581 42.8119L51.3596 40.1962ZM45.7399 44.7859C42.1753 45.1203 32.9565 44.8228 22.9708 34.896L20.3699 37.5093C31.2652 48.3431 41.6369 48.8741 46.084 48.4587L45.7374 44.7859H45.7399ZM22.9708 34.896C13.4546 25.4315 11.8763 17.4738 11.6796 14.0199L7.99706 14.2288C8.24289 18.5752 10.1973 27.3957 20.3699 37.5093L22.9708 34.896ZM26.351 19.7035L27.0565 19.0005L24.4605 16.3873L23.755 17.0879L26.3534 19.7011L26.351 19.7035ZM27.617 10.0644L24.5195 5.92459L21.5671 8.13709L24.6646 12.2745L27.617 10.0644ZM14.0937 5.02238L10.2341 8.85738L12.8351 11.473L16.6922 7.63805L14.0937 5.02238ZM25.053 18.3957C23.7501 17.0879 23.7501 17.0879 23.7501 17.0928H23.7451L23.7378 17.1026C23.6217 17.2211 23.5172 17.3503 23.4256 17.4886C23.2928 17.6853 23.1478 17.9434 23.0249 18.2703C22.7255 19.1143 22.6509 20.0217 22.8085 20.9032C23.1379 23.0297 24.6031 25.8395 28.3545 29.5713L30.9554 26.9556C27.4425 23.4648 26.6066 21.3408 26.4518 20.3378C26.378 19.8609 26.4542 19.6249 26.4764 19.5708C26.4886 19.5364 26.4936 19.5339 26.4764 19.556C26.4547 19.5901 26.43 19.6222 26.4026 19.6519L26.378 19.6765C26.3701 19.6841 26.3619 19.6915 26.3534 19.6986L25.0505 18.3957H25.053ZM28.3545 29.5713C32.1084 33.303 34.933 34.7584 37.0619 35.0829C38.151 35.25 39.0286 35.1173 39.6948 34.869C40.0673 34.7311 40.4158 34.5353 40.7273 34.2888C40.7696 34.2535 40.8106 34.2166 40.8502 34.1782L40.8674 34.1635L40.8748 34.1561L40.8773 34.1512C40.8773 34.1512 40.8797 34.1487 39.5793 32.8409C38.2764 31.533 38.2837 31.5306 38.2837 31.5306L38.2886 31.5257L38.2936 31.5208L38.3083 31.5085L38.3329 31.4839C38.3624 31.4573 38.3936 31.4327 38.4263 31.4101C38.4509 31.3929 38.4435 31.4003 38.4091 31.415C38.3476 31.4372 38.1067 31.5134 37.6224 31.4396C36.6047 31.2823 34.4659 30.4465 30.9554 26.9556L28.3545 29.5713ZM24.5195 5.92213C22.012 2.57879 17.0855 2.04779 14.0937 5.02238L16.6922 7.63805C18 6.33759 20.3207 6.47279 21.5671 8.13709L24.5171 5.92213H24.5195ZM11.6821 14.0223C11.6329 13.1718 12.0238 12.2818 12.8351 11.4755L10.2317 8.85984C8.91156 10.1726 7.87168 12.0311 7.99706 14.2288L11.6821 14.0223ZM47.8688 43.6698C47.1952 44.3434 46.4675 44.722 45.7423 44.7884L46.084 48.4587C47.8909 48.289 49.3684 47.3795 50.4697 46.2855L47.8688 43.6698ZM27.0565 19.0005C29.478 16.5938 29.6574 12.7907 27.6195 10.0669L24.667 12.2769C25.6577 13.602 25.5102 15.34 24.4581 16.3897L27.0565 19.0005ZM50.4598 35.1247C52.4683 36.2162 52.7805 38.7876 51.3621 40.1987L53.963 42.8119C57.2571 39.5349 56.2418 34.07 52.2176 31.8846L50.4598 35.1247ZM42.0007 33.0375C42.9447 32.0985 44.464 31.8674 45.762 32.5705L47.5221 29.3328C44.8573 27.8824 41.5533 28.2831 39.3998 30.4219L42.0007 33.0375Z" fill="black"/>
</svg>
